<svg id="Layer_1" enable-background="new 0 0 512.032 512.032" height="512" viewBox="0 0 512.032 512.032" width="512" xmlns="http://www.w3.org/2000/svg"><g><g><path d="m134.164 0h227.843c9.984 0 18.077 8.093 18.077 18.077v406.655c0 9.984-8.093 18.077-18.077 18.077h-312.754c-9.984 0-18.077-8.093-18.077-18.077v-325.841c0-4.585 1.879-8.97 5.199-12.132l86.233-82.136c3.116-2.968 7.253-4.623 11.556-4.623z" fill="#fff1f3"/><g fill="#e2ebf0"><path d="m109.384 91.711c9.984 0 18.077-8.093 18.077-18.077v-72.217c-1.775.776-3.425 1.845-4.853 3.205l-86.233 82.137c-1.501 1.43-2.689 3.117-3.56 4.952z"/><path d="m362.007 0h-156.377v442.809h156.377c9.984 0 18.077-8.093 18.077-18.077v-406.655c0-9.984-8.094-18.077-18.077-18.077z"/></g></g><g><path d="m292.441 174.475h-173.622c-8.534 0-15.453-6.919-15.453-15.453s6.919-15.453 15.453-15.453h173.622c8.534 0 15.453 6.919 15.453 15.453 0 8.535-6.919 15.453-15.453 15.453z" fill="#006182"/></g><g><path d="m292.441 234.901h-173.622c-8.534 0-15.453-6.919-15.453-15.453s6.919-15.453 15.453-15.453h173.622c8.534 0 15.453 6.919 15.453 15.453s-6.919 15.453-15.453 15.453z" fill="#006182"/></g><g><path d="m292.441 295.327h-173.622c-8.534 0-15.453-6.919-15.453-15.453s6.919-15.453 15.453-15.453h173.622c8.534 0 15.453 6.919 15.453 15.453s-6.919 15.453-15.453 15.453z" fill="#006182"/></g><g fill="#004762"><path d="m292.441 143.569h-86.811v30.906h86.811c8.534 0 15.453-6.919 15.453-15.453s-6.919-15.453-15.453-15.453z"/><path d="m292.441 203.995h-86.811v30.906h86.811c8.534 0 15.453-6.919 15.453-15.453s-6.919-15.453-15.453-15.453z"/><path d="m292.441 264.421h-86.811v30.906h86.811c8.534 0 15.453-6.919 15.453-15.453s-6.919-15.453-15.453-15.453z"/></g><path d="m380.084 512.032c-55.655 0-100.773-45.117-100.773-100.773 0-55.655 45.117-100.773 100.773-100.773 55.655 0 100.773 45.117 100.773 100.773-.001 55.656-45.118 100.773-100.773 100.773z" fill="#ff0032"/><path d="m380.084 310.487v201.545c55.655 0 100.773-45.117 100.773-100.772-.001-55.655-45.118-100.773-100.773-100.773z" fill="#be2342"/><path d="m417.787 428.672-16.304-16.304 15.125-15.126c5.858-5.858 5.858-15.355 0-21.213-5.857-5.857-15.355-5.858-21.213 0l-15.125 15.125-12.927-12.928c-5.856-5.857-15.354-5.858-21.213 0-5.858 5.858-5.858 15.355 0 21.213l12.928 12.928-14.106 14.107c-5.858 5.858-5.858 15.355 0 21.213 2.929 2.929 6.768 4.393 10.606 4.393s7.678-1.464 10.606-4.394l14.106-14.106 16.304 16.304c2.929 2.929 6.768 4.394 10.606 4.394s7.678-1.465 10.606-4.393c5.859-5.858 5.859-15.355.001-21.213z" fill="#fff1f3"/><path d="m401.483 412.367 15.125-15.126c5.858-5.858 5.858-15.355 0-21.213-5.857-5.857-15.355-5.858-21.213 0l-15.125 15.125-.186-.186v42.799l.186-.186 16.304 16.304c2.929 2.929 6.768 4.394 10.606 4.394s7.678-1.465 10.606-4.393c5.858-5.858 5.858-15.355 0-21.213z" fill="#e2ebf0"/></g></svg>