<svg id="Capa_1" enable-background="new 0 0 512 512" height="512" viewBox="0 0 512 512" width="512" xmlns="http://www.w3.org/2000/svg"><g><g><g clip-rule="evenodd" fill-rule="evenodd"><circle cx="67.5" cy="67.5" fill="#ff5477" r="60"/><path d="m186.718 67.5 34.641 60h69.282l34.641-60-34.641-60h-69.282z" fill="#fff08a"/><path d="m186.718 67.5 34.641 60h25.981l-34.642-60 34.642-60h-25.981z" fill="#ffc472"/><path d="m384.5 7.5h120v120h-120z" fill="#53d8f6"/><path d="m278.5 504.5-22.5-68.218-22.499 68.218z" fill="#2d93f4"/><path d="m256 436.282 22.5 68.217h59.305l-.007-42.747c.344-22.569-5.412-32.402-27.538-36.858l-36.066-7.264-18.194 18.652-18.194-18.652-36.066 7.264c-22.126 4.456-27.882 14.289-27.538 36.858l-.007 42.747h59.305z" fill="#53d8f6"/><path d="m7.5 67.5c0 37.819 34.443 65.928 71.25 58.942-27.759-5.266-48.75-29.65-48.75-58.942 0-29.291 20.991-53.676 48.75-58.943-36.806-6.984-71.25 21.124-71.25 58.943z" fill="#ff0e42"/><path d="m384.5 7.5h22.5v120h-22.5z" fill="#2d93f4"/><path d="m332.547 314.842c0-38.89-38.392-73.066-76.547-73.066-38.156 0-76.547 34.175-76.547 73.066v70.915h45.329c-9.402-8.672-15.329-20.232-15.329-30.04v-27.748c5-8.828 16.548-20.489 28.354-26.944 22.196 18.194 36.387 26.944 64.741 26.944v27.748c0 9.807-5.927 21.367-15.33 30.04h45.33v-70.915z" fill="#fff08a"/><path d="m302.547 327.969c-28.354 0-42.546-8.75-64.741-26.944-11.806 6.455-23.353 18.116-28.354 26.944v27.748c0 22.09 24.597 43.066 46.547 43.066s46.547-20.977 46.547-43.066v-27.748z" fill="#fef2e2"/><path d="m271.001 395.95c-9.825 3.755-20.178 3.755-30.003 0l-3.192 21.68 18.194 18.652 18.193-18.652z" fill="#fef2e2"/><path d="m231.953 304.652c-9.62 6.639-18.333 15.962-22.5 23.318v27.748c0 22.09 24.597 43.066 46.547 43.066 3.718 0 7.512-.604 11.25-1.711-18.328-5.43-35.298-23.008-35.298-41.355v-51.066z" fill="#ffe1ba"/><path d="m179.453 363.257v22.5h45.329c-7.073-6.524-12.179-14.683-14.275-22.5zm122.04 0c-2.096 7.817-7.202 15.975-14.276 22.5h45.33v-22.5z" fill="#ffc472"/><path d="m199.888 425.29c-20.595 4.633-26.019 14.538-25.685 36.463l-.007 42.747h22.5l.007-57.747c-.138-9.041.705-16.037 3.185-21.463z" fill="#2d93f4"/></g><g><path d="m93.907 52.5h-15v-15h15zm388.093-7.5h-15v-15h15zm-202.719 0h-15v-15h15z" fill="#fff"/></g></g><g><path d="m263.5 219.276v-33.77l8.41 8.41 10.607-10.607-26.517-26.516-26.516 26.516 10.606 10.607 8.41-8.41v33.77z"/><path d="m311.741 417.542-30.896-6.223-1.597-10.844c3.771-1.947 7.396-4.356 10.803-7.218h49.996v-78.415c0-20.347-9.604-40.977-26.349-56.601-16.324-15.229-37.354-23.965-57.698-23.965-20.345 0-41.375 8.734-57.699 23.965-16.745 15.623-26.349 36.254-26.349 56.601v19.502h15v-19.502c0-16.203 7.866-32.836 21.582-45.633 13.577-12.667 30.877-19.933 47.466-19.933 16.588 0 33.888 7.266 47.465 19.933 13.716 12.797 21.582 29.43 21.582 45.633v63.415h-22.037c4.504-7.372 7.037-15.261 7.037-22.539v-35.248h-7.5c-26.311 0-39.052-8.085-59.986-25.245l-3.914-3.207-4.439 2.427c-12.271 6.71-25.134 18.976-31.281 29.829l-.974 1.72v29.725c0 7.277 2.532 15.167 7.036 22.539h-22.036v-28.914h-15v43.914h49.996c3.406 2.862 7.031 5.271 10.803 7.218l-1.597 10.844-30.896 6.223c-28.393 5.719-33.898 21.178-33.557 44.267l-.008 50.19h178.611l-.008-50.191c.342-23.089-5.163-38.548-33.556-44.267zm-94.788-61.824v-25.657c3.929-6.096 11.594-14.176 20.225-19.896 19.866 15.833 34.55 23.757 57.869 25.099v20.455c0 19.632-23.627 35.565-39.047 35.565s-39.047-15.934-39.047-35.566zm39.047 50.565c2.96 0 5.907-.291 8.819-.829l1.413 9.597-10.232 10.49-10.234-10.491 1.413-9.596c2.914.538 5.861.829 8.821.829zm-74.298 55.356c-.306-20.078 3.917-25.847 21.52-29.392l32.065-6.459 12.165 12.471-19.375 58.741h-46.38l.006-35.246zm74.298-1.412 12.129 36.773h-24.257zm74.304 36.773h-46.38l-19.374-58.742 12.163-12.47 32.066 6.459c17.602 3.545 21.825 9.313 21.519 29.392l-.001.058z"/><path d="m135 67.5c0-37.22-30.28-67.5-67.5-67.5s-67.5 30.28-67.5 67.5 30.281 67.5 67.5 67.5 67.5-30.28 67.5-67.5zm-120 0c0-28.948 23.552-52.5 52.5-52.5s52.5 23.552 52.5 52.5-23.551 52.5-52.5 52.5-52.5-23.552-52.5-52.5z"/><path d="m294.971 135 38.971-67.5-38.971-67.5h-77.941l-38.971 67.5 38.971 67.5zm-69.282-120h60.621l30.311 52.5-30.31 52.5h-60.621l-30.311-52.5z"/><path d="m377 0v135h45v-15h-30v-105h105v105h-30v15h45v-135z"/><path d="m437 120h15v15h-15z"/><path d="m75 185.506 8.41 8.41 10.607-10.607-26.517-26.516-26.516 26.516 10.606 10.607 8.41-8.41v163.837h89.453v-15h-74.453z"/><path d="m417.983 183.309 10.607 10.607 8.41-8.41v148.837h-74.453v15h89.453v-163.837l8.41 8.41 10.606-10.607-26.516-26.516z"/></g></g></svg>