<?xml version="1.0"?>
<svg xmlns="http://www.w3.org/2000/svg" xmlns:xlink="http://www.w3.org/1999/xlink" xmlns:svgjs="http://svgjs.com/svgjs" version="1.1" width="512" height="512" x="0" y="0" viewBox="0 0 512 512" style="enable-background:new 0 0 512 512" xml:space="preserve" class=""><circle r="256" cx="256" cy="256" fill="#e7c747" shape="circle"/><g transform="matrix(0.7,0,0,0.7,76.80000000000001,76.80000000000001)"><path xmlns="http://www.w3.org/2000/svg" d="m64 64h320v408h-320z" fill="#d0d2d4" data-original="#d0d2d4" style="" class=""/><path xmlns="http://www.w3.org/2000/svg" d="m24 24h328v408h-328z" fill="#e9eef2" data-original="#e9eef2" style="" class=""/><circle xmlns="http://www.w3.org/2000/svg" cx="88" cy="96" fill="#ffb632" r="32" data-original="#ffb632" style=""/><g xmlns="http://www.w3.org/2000/svg" fill="#d0d2d4"><path d="m312 72h-160a8 8 0 0 1 0-16h160a8 8 0 0 1 0 16z" fill="#d0d2d4" data-original="#d0d2d4" style="" class=""/><path d="m312 104h-160a8 8 0 0 1 0-16h160a8 8 0 0 1 0 16z" fill="#d0d2d4" data-original="#d0d2d4" style="" class=""/><path d="m312 136h-160a8 8 0 0 1 0-16h160a8 8 0 0 1 0 16z" fill="#d0d2d4" data-original="#d0d2d4" style="" class=""/><path d="m224 264h-160a8 8 0 0 1 0-16h160a8 8 0 0 1 0 16z" fill="#d0d2d4" data-original="#d0d2d4" style="" class=""/><path d="m312 168h-248a8 8 0 0 1 0-16h248a8 8 0 0 1 0 16z" fill="#d0d2d4" data-original="#d0d2d4" style="" class=""/><path d="m312 200h-248a8 8 0 0 1 0-16h248a8 8 0 0 1 0 16z" fill="#d0d2d4" data-original="#d0d2d4" style="" class=""/><path d="m312 232h-248a8 8 0 0 1 0-16h248a8 8 0 0 1 0 16z" fill="#d0d2d4" data-original="#d0d2d4" style="" class=""/></g><path xmlns="http://www.w3.org/2000/svg" d="m64 288h136v112h-136z" fill="#ffb632" data-original="#ffb632" style=""/><path xmlns="http://www.w3.org/2000/svg" d="m488 376v-32h-24a100.344 100.344 0 0 0 -16-40l24-24-24-24-24 24a100.344 100.344 0 0 0 -40-16v-32h-32v32a100.344 100.344 0 0 0 -40 16l-24-24-24 24 24 24a100.344 100.344 0 0 0 -16 40h-24v32h24a100.344 100.344 0 0 0 16 40l-24 24 24 24 24-24a100.344 100.344 0 0 0 40 16v32h32v-32a100.344 100.344 0 0 0 40-16l24 24 24-24-24-24a100.344 100.344 0 0 0 16-40zm-120 32a48 48 0 1 1 48-48 48 48 0 0 1 -48 48z" fill="#7e8589" data-original="#7e8589" style=""/></g></svg>
