<svg id="Capa_1" enable-background="new 0 0 512 512" height="512" viewBox="0 0 512 512" width="512" xmlns="http://www.w3.org/2000/svg"><g><g><g><g><path d="m127.68 509.48c-6.885-4.6-8.76-13.901-4.16-20.801l60-90c4.629-6.929 13.975-8.716 20.801-4.16 6.885 4.6 8.76 13.901 4.16 20.801l-60 90c-4.649 6.95-13.965 8.718-20.801 4.16z" fill="#396973"/></g></g></g><g><g><g><path d="m363.52 505.32-60-90c-4.6-6.899-2.725-16.201 4.16-20.801 6.826-4.57 16.172-2.769 20.801 4.16l60 90c4.6 6.899 2.725 16.201-4.16 20.801-6.848 4.565-16.16 2.779-20.801-4.16z" fill="#2d4a59"/></g></g></g><g><g><g><path d="m256 62c-8.291 0-15-6.709-15-15v-32c0-8.291 6.709-15 15-15s15 6.709 15 15v32c0 8.291-6.709 15-15 15z" fill="#396973"/></g></g></g><path d="m271 47v-32c0-8.291-6.709-15-15-15v62c8.291 0 15-6.709 15-15z" fill="#2d4a59"/><g><g><g><g><path d="m481 407c0 8.291-6.709 15-15 15h-420c-8.291 0-15-6.709-15-15v-345c0-8.291 6.709-15 15-15h420c8.291 0 15 6.709 15 15z" fill="#f3f5f9"/></g></g></g></g><path d="m481 62c0-8.291-6.709-15-15-15h-210v375h210c8.291 0 15-6.709 15-15z" fill="#e1e6f0"/><g id="Presentation_2_"><g><path d="m343.001 268.7 30 44.735-30 48.564h-57.001l-30-53.02 30-66.979c2.1 0 4.501.601 6.599 1.5z" fill="#ffbe40"/></g><g><g><g><g><path d="m166 92-30 45-45 30c0 41.4 33.6 75 75 75s75-33.6 75-75-33.6-75-75-75z" fill="#5ab267"/></g></g></g></g><path d="m166 92v60c0 8.284-6.716 15-15 15h-60c0-41.4 33.6-75 75-75z" fill="#ffdf40"/><g><path d="m376 122h-60c-8.291 0-15-6.709-15-15s6.709-15 15-15h60c8.291 0 15 6.709 15 15s-6.709 15-15 15z" fill="#b8c4d9"/></g><g><path d="m376 182h-60c-8.291 0-15-6.709-15-15s6.709-15 15-15h60c8.291 0 15 6.709 15 15s-6.709 15-15 15z" fill="#b8c4d9"/></g><g><g><g><path d="m166 302h-60c-8.291 0-15-6.709-15-15s6.709-15 15-15h60c8.291 0 15 6.709 15 15s-6.709 15-15 15z" fill="#cfd7e6"/></g></g></g><g><g><g><path d="m166 362h-60c-8.291 0-15-6.709-15-15s6.709-15 15-15h60c8.291 0 15 6.709 15 15s-6.709 15-15 15z" fill="#cfd7e6"/></g></g></g></g><path d="m421 227v120c0 8.401-6.599 15-15 15h-62.999v-93.3l52.5-52.2c4.2-4.501 10.8-5.7 16.198-3.301 5.701 2.401 9.301 7.801 9.301 13.801z" fill="#e63a3a"/><g><g><g><path d="m497 62h-482c-8.291 0-15-6.709-15-15s6.709-15 15-15h482c8.291 0 15 6.709 15 15s-6.709 15-15 15z" fill="#396973"/></g></g></g><path d="m497 32h-241v30h241c8.291 0 15-6.709 15-15s-6.709-15-15-15z" fill="#2d4a59"/><path d="m286 242v120h-60c-8.401 0-15-6.599-15-15v-30c0-3.9 1.5-7.8 4.501-10.499l60-60c2.699-3.001 6.599-4.501 10.499-4.501z" fill="#ff7559"/><path d="m256 266.001v95.999h30v-120c-3.9 0-7.8 1.5-10.499 4.501z" fill="#e63a3a"/></g></svg>