<svg height="512" viewBox="0 0 64 64" width="512" xmlns="http://www.w3.org/2000/svg"><g id="Project-Innovation-Idea-Management-Control"><path d="m47 11v46a3.969 3.969 0 0 1 -.71 2.27 4.154 4.154 0 0 1 -.46.56 4.025 4.025 0 0 1 -2.83 1.17h-36a4 4 0 0 1 -4-4v-50a4 4 0 0 1 4-4h32v6a2.006 2.006 0 0 0 2 2z" fill="#e6e7e8"/><path d="m47 40.47v16.53a3.969 3.969 0 0 1 -.71 2.27 9.819 9.819 0 0 1 -1.38-.68l-2.69 2.02-2.83-2.83 2.02-2.69a9.8 9.8 0 0 1 -1.09-2.62l-3.32-.47v-4l3.32-.47a9.8 9.8 0 0 1 1.09-2.62l-2.02-2.69 2.83-2.83 2.69 2.02a9.877 9.877 0 0 1 2.09-.94z" fill="#d8d7da"/><path d="m57.68 50.47a9.8 9.8 0 0 1 -1.09 2.62l2.02 2.69-2.83 2.83-2.69-2.02a9.8 9.8 0 0 1 -2.62 1.09l-.47 3.32h-4l-.17-1.17-.3-2.15a9.8 9.8 0 0 1 -2.62-1.09l-2.69 2.02-2.83-2.83 2.02-2.69a9.8 9.8 0 0 1 -1.09-2.62l-3.32-.47v-4l3.32-.47a9.8 9.8 0 0 1 1.09-2.62l-2.02-2.69 2.83-2.83 2.69 2.02a9.8 9.8 0 0 1 2.62-1.09l.47-3.32h4l.47 3.32a9.8 9.8 0 0 1 2.62 1.09l2.69-2.02 2.83 2.83-2.02 2.69a9.8 9.8 0 0 1 1.09 2.62l3.32.47v4z" fill="#ff9811"/><path d="m48 43a4.712 4.712 0 0 0 -1 .1 5 5 0 0 0 0 9.8 4.712 4.712 0 0 0 1 .1 5 5 0 0 0 0-10z" fill="#ffd422"/><path d="m26.88 15a7.1 7.1 0 0 0 -6.88 6.74 6.955 6.955 0 0 0 2.09 5.24 6.156 6.156 0 0 1 1.91 4.38v3.64a1 1 0 0 0 1 1h4a1 1 0 0 0 1-1v-3.64a5.936 5.936 0 0 1 1.84-4.31 7 7 0 0 0 -4.96-12.05z" fill="#d8d7da"/><path d="m28 30v3a1 1 0 0 1 -1 1h-4a1 1 0 0 1 -1-1v-3z" fill="#ee8700"/><path d="m28 29.36v.64h-6v-.64a6.156 6.156 0 0 0 -1.91-4.38 6.955 6.955 0 0 1 -2.09-5.24 7.1 7.1 0 0 1 6.88-6.74 7 7 0 0 1 4.96 12.05 5.936 5.936 0 0 0 -1.84 4.31z" fill="#ffd422"/><path d="m47 11h-6a2.006 2.006 0 0 1 -2-2v-6z" fill="#bcbec0"/><path d="m19 29h12v2h-12z" fill="#cc7400"/><path d="m28 20h-2a1 1 0 0 1 -2 0h-2a3 3 0 0 0 2 2.816v4.184h2v-4.184a3 3 0 0 0 2-2.816z" fill="#ebbf00"/><g fill="#ff9811"><path d="m24 8h2v2h-2z"/><path d="m18.5 9.474h2v2h-2z" transform="matrix(.866 -.5 .5 .866 -2.624 11.154)"/><path d="m14.473 13.5h2v2h-2z" transform="matrix(.5 -.866 .866 .5 -4.82 20.652)"/><path d="m13 19h2v2h-2z"/><path d="m14.473 24.5h2v2h-2z" transform="matrix(.866 -.5 .5 .866 -10.676 11.151)"/><path d="m33.526 24.5h2v2h-2z" transform="matrix(.5 -.866 .866 .5 -4.819 42.654)"/><path d="m35 19h2v2h-2z"/><path d="m33.526 13.5h2v2h-2z" transform="matrix(.866 -.5 .5 .866 -2.625 19.202)"/><path d="m29.5 9.474h2v2h-2z" transform="matrix(.5 -.866 .866 .5 6.181 31.653)"/></g><path d="m47 38h2v2h-2z" fill="#ee8700"/><path d="m40.636 40.636h2v2h-2z" fill="#ee8700" transform="matrix(.707 -.707 .707 .707 -17.246 41.626)"/><path d="m38 47h2v2h-2z" fill="#ee8700"/><path d="m40.636 53.364h2v2h-2z" fill="#ee8700" transform="matrix(.707 -.707 .707 .707 -26.246 45.364)"/><path d="m47 56h2v2h-2z" fill="#ee8700"/><path d="m53.364 53.364h2v2h-2z" fill="#ee8700" transform="matrix(.707 -.707 .707 .707 -22.518 54.351)"/><path d="m56 47h2v2h-2z" fill="#ee8700"/><path d="m53.364 40.636h2v2h-2z" fill="#ee8700" transform="matrix(.707 -.707 .707 .707 -13.518 50.636)"/><path d="m8 39h18v2h-18z" fill="#c6c5ca"/><path d="m28 39h4v2h-4z" fill="#c6c5ca"/><path d="m8 43h24v2h-24z" fill="#c6c5ca"/><path d="m8 47h2v2h-2z" fill="#c6c5ca"/><path d="m12 47h20v2h-20z" fill="#c6c5ca"/><path d="m8 51h24v2h-24z" fill="#c6c5ca"/></g></svg>