<svg id="Capa_1" enable-background="new 0 0 512 512" height="512" viewBox="0 0 512 512" width="512" xmlns="http://www.w3.org/2000/svg"><g><g><path d="m491.536 409.563v-316.572c0-9.423-7.639-17.062-17.062-17.062h-284.371c-9.423 0-17.062 7.639-17.062 17.062v401.947c0 9.423 7.639 17.062 17.062 17.062h198.996z" fill="#dfdfdf"/></g><g><path d="m474.474 75.929h-21.11v309.501c0 3.696-1.468 7.24-4.081 9.853l-116.717 116.717h56.532l102.438-102.437v-316.572c0-9.423-7.639-17.062-17.062-17.062z" fill="#ababab"/></g><g><path d="m406.143 409.563h85.393l-102.437 102.437v-85.393c0-9.413 7.631-17.044 17.044-17.044z" fill="#f5f5f5"/></g><g><path d="m456.589 409.563-67.49 67.49v34.947l102.437-102.437z" fill="#dfdfdf"/></g><g><path d="m407.837 107.665h-151.097c-2.761 0-5-2.239-5-5v-30.915c0-15.006 12.164-27.17 27.17-27.17h106.758c15.006 0 27.17 12.164 27.17 27.17v30.915c-.001 2.762-2.239 5-5.001 5z" fill="#fc6b55"/></g><g><path d="m392.616 45.513c.605 2.259.933 4.632.933 7.082v14.356c0 11.833-9.593 21.426-21.426 21.426h-120.383v14.264c0 2.775 2.25 5.024 5.025 5.024h151.049c2.775 0 5.025-2.25 5.025-5.024v-30.757c-.002-12.629-8.578-23.251-20.223-26.371z" fill="#fc534e"/></g><g><path d="m341.86 77.932h-19.143c-12.576 0-22.807-10.232-22.807-22.808v-32.316c-.001-12.576 10.231-22.808 22.807-22.808h19.143c12.577 0 22.808 10.232 22.808 22.808v32.315c0 12.577-10.231 22.809-22.808 22.809zm-19.143-62.859c-4.265 0-7.734 3.47-7.734 7.735v32.315c0 4.265 3.469 7.735 7.734 7.735h19.143c4.265 0 7.735-3.47 7.735-7.735v-32.315c0-4.265-3.47-7.735-7.735-7.735z" fill="#434343"/></g><g><path d="m55.138 233.928c-1.928 0-3.858-.736-5.329-2.207l-27.137-27.136c-2.944-2.943-2.944-7.715-.001-10.658 2.944-2.944 7.716-2.943 10.658-.001l21.808 21.807 47.528-47.529c2.944-2.942 7.715-2.942 10.659 0 2.943 2.944 2.943 7.715 0 10.659l-52.857 52.857c-1.471 1.472-3.401 2.208-5.329 2.208z" fill="#05e29a"/></g><g><path d="m55.138 412.305c-1.999 0-3.916-.794-5.33-2.207l-27.137-27.137c-2.943-2.944-2.943-7.715 0-10.659 2.944-2.942 7.715-2.942 10.659 0l21.807 21.808 47.528-47.53c2.944-2.942 7.715-2.942 10.659 0 2.943 2.944 2.943 7.715 0 10.659l-52.857 52.858c-1.413 1.414-3.33 2.208-5.329 2.208z" fill="#05e29a"/></g><g><path d="m55.138 491.834c-1.928 0-3.858-.736-5.329-2.207l-27.137-27.136c-2.944-2.943-2.944-7.715-.001-10.658 2.944-2.944 7.716-2.943 10.658-.001l21.808 21.807 47.528-47.529c2.944-2.942 7.715-2.942 10.659 0 2.943 2.944 2.943 7.715 0 10.659l-52.857 52.857c-1.471 1.472-3.401 2.208-5.329 2.208z" fill="#05e29a"/></g><g><path d="m34.033 326.758c-1.928 0-3.858-.736-5.33-2.207-2.943-2.944-2.943-7.715 0-10.659l51.667-51.667c2.944-2.942 7.715-2.942 10.659 0 2.943 2.944 2.943 7.715 0 10.659l-51.667 51.667c-1.471 1.471-3.401 2.207-5.329 2.207z" fill="#fc534e"/></g><g><path d="m85.7 326.758c-1.928 0-3.858-.736-5.33-2.207l-51.667-51.667c-2.943-2.944-2.943-7.715 0-10.659 2.944-2.942 7.715-2.942 10.659 0l51.667 51.667c2.943 2.944 2.943 7.715 0 10.659-1.471 1.471-3.401 2.207-5.329 2.207z" fill="#fc534e"/></g><g><path d="m321.407 197.583h-180.177c-4.163 0-7.537-3.374-7.537-7.537s3.374-7.537 7.537-7.537h180.177c4.163 0 7.537 3.374 7.537 7.537s-3.374 7.537-7.537 7.537z" fill="#434343"/></g><g><path d="m428.554 197.583h-67.349c-4.163 0-7.537-3.374-7.537-7.537s3.374-7.537 7.537-7.537h67.349c4.163 0 7.537 3.374 7.537 7.537-.001 4.163-3.374 7.537-7.537 7.537z" fill="#434343"/></g><g><path d="m256.15 228.794h-114.92c-4.163 0-7.537-3.374-7.537-7.537s3.374-7.537 7.537-7.537h114.92c4.163 0 7.537 3.374 7.537 7.537s-3.374 7.537-7.537 7.537z" fill="#434343"/></g><g><path d="m321.407 286.396h-180.177c-4.163 0-7.537-3.374-7.537-7.537s3.374-7.537 7.537-7.537h180.177c4.163 0 7.537 3.374 7.537 7.537s-3.374 7.537-7.537 7.537z" fill="#434343"/></g><g><path d="m256.15 317.607h-114.92c-4.163 0-7.537-3.374-7.537-7.537s3.374-7.537 7.537-7.537h114.92c4.163 0 7.537 3.374 7.537 7.537s-3.374 7.537-7.537 7.537z" fill="#434343"/></g><g><path d="m414.318 317.607h-118.939c-4.163 0-7.537-3.374-7.537-7.537s3.374-7.537 7.537-7.537h118.939c4.163 0 7.537 3.374 7.537 7.537s-3.374 7.537-7.537 7.537z" fill="#434343"/></g><g><path d="m229.902 373.122h-88.672c-4.163 0-7.537-3.374-7.537-7.537s3.374-7.537 7.537-7.537h88.671c4.163 0 7.537 3.374 7.537 7.537s-3.373 7.537-7.536 7.537z" fill="#434343"/></g><g><path d="m299.109 373.122h-30.078c-4.163 0-7.537-3.374-7.537-7.537s3.374-7.537 7.537-7.537h30.078c4.163 0 7.537 3.374 7.537 7.537s-3.374 7.537-7.537 7.537z" fill="#434343"/></g><g><path d="m256.15 404.333h-114.92c-4.163 0-7.537-3.374-7.537-7.537s3.374-7.537 7.537-7.537h114.92c4.163 0 7.537 3.374 7.537 7.537s-3.374 7.537-7.537 7.537z" fill="#434343"/></g><g><path d="m321.407 455.295h-180.177c-4.163 0-7.537-3.374-7.537-7.537s3.374-7.537 7.537-7.537h180.177c4.163 0 7.537 3.374 7.537 7.537s-3.374 7.537-7.537 7.537z" fill="#434343"/></g></g></svg>